<?xml version="1.0" encoding="UTF-8"?>
<svg id="Layer_2" data-name="Layer 2" xmlns="http://www.w3.org/2000/svg" viewBox="0 0 1298 923.67">
  <defs>
    <style>
      .cls-1 {
        fill: #52a0cc;
      }

      .cls-1, .cls-2, .cls-3, .cls-4 {
        stroke-width: 0px;
      }

      .cls-2 {
        fill: #4eacd1;
      }

      .cls-3 {
        fill: #d34c4c;
      }

      .cls-4 {
        fill: #fff;
      }
    </style>
  </defs>
  <g id="Layer_1-2" data-name="Layer 1">
    <g id="BODY">
      <polygon id="BODY_BACKGROUND" data-name="BODY BACKGROUND" class="cls-1" points="1259.78 164.51 1259.78 773.49 38.22 773.49 38.22 266.82 1259.78 164.51"/>
      <g id="PORT-FOLIO">
        <path id="P" class="cls-4" d="m204.21,351.88c31.24,0,46.17,12.45,46.17,38.48v50.36c0,26.03-14.94,38.48-46.17,38.48h-75.03v30.56h35.31v40.18H36.84v-40.18h28.52v-117.7h-28.52v-40.18h167.38Zm-17.65,48.1c0-3.96-1.36-5.09-6.11-5.09h-51.27v41.31h51.27c4.75,0,6.11-1.13,6.11-5.09v-31.12Z"/>
        <path id="O" class="cls-4" d="m367.85,549.93c-31.23,0-46.17-12.45-46.17-38.48v-121.09c0-26.03,14.94-38.48,46.17-38.48h102.19c31.23,0,46.17,12.45,46.17,38.48v121.09c0,26.03-14.94,38.48-46.17,38.48h-102.19Zm17.66-49.23c0,3.96,1.36,5.09,6.11,5.09h54.66c4.75,0,6.11-1.13,6.11-5.09v-99.59c0-3.96-1.36-5.09-6.11-5.09h-54.66c-4.75,0-6.11,1.13-6.11,5.09v99.59Z"/>
        <path id="R" class="cls-4" d="m814.64,549.93h-70.62l-39.72-74.41h-26.48v34.23h22.41v40.18h-114.75v-40.18h28.52v-117.7h-28.52v-40.18h167.72c31.23,0,46.17,12.45,46.17,38.48v39.89c0,22.63-11.2,35.08-34.63,37.91l22.41,41.59h27.5v40.18Zm-85.22-114.59c4.75,0,6.11-1.13,6.11-5.09v-30.84c0-3.96-1.36-5.09-6.11-5.09h-51.61v41.02h51.61Z"/>
        <path id="T" class="cls-4" d="m1035.33,393.75h-27.5v116h30.56v40.18h-124.94v-40.18h30.56v-116h-27.5v33.39h-50.93v-75.26h220.68v75.26h-50.93v-33.39Z"/>
        <path id="_-" data-name="-" class="cls-4" d="m1261,479.76h-106.22v-45.55h106.22v45.55Z"/>
        <path id="F" class="cls-4" d="m189.8,602.24h-57.42v37.64h80.88v43.76h-80.88v37.05h21.01v41.43H37.16v-41.43h29.41v-121.37h-29.41v-41.43h205.17v65.94h-52.52v-21.59Z"/>
        <path id="O-2" data-name="O" class="cls-4" d="m363.82,762.12c-32.21,0-47.62-12.84-47.62-39.68v-124.87c0-26.84,15.4-39.68,47.62-39.68h105.38c32.21,0,47.62,12.84,47.62,39.68v124.87c0,26.84-15.4,39.68-47.62,39.68h-105.38Zm18.21-50.77c0,4.08,1.4,5.25,6.3,5.25h56.37c4.9,0,6.3-1.17,6.3-5.25v-102.7c0-4.08-1.4-5.25-6.3-5.25h-56.37c-4.9,0-6.3,1.17-6.3,5.25v102.7Z"/>
        <path id="L" class="cls-4" d="m588.24,762.12v-41.43h29.41v-121.37h-29.41v-41.43h126.74v41.43h-31.51v118.16h54.27v-35.59h52.52v80.23h-202.01Z"/>
        <path id="I" class="cls-4" d="m956.21,720.69h31.51v41.43h-128.84v-41.43h31.51v-121.37h-31.51v-41.43h128.84v41.43h-31.51v121.37Z"/>
        <path id="O-3" data-name="O" class="cls-4" d="m1108.16,762.12c-32.21,0-47.62-12.84-47.62-39.68v-124.87c0-26.84,15.4-39.68,47.62-39.68h105.38c32.21,0,47.62,12.84,47.62,39.68v124.87c0,26.84-15.4,39.68-47.62,39.68h-105.38Zm18.21-50.77c0,4.08,1.4,5.25,6.3,5.25h56.37c4.9,0,6.3-1.17,6.3-5.25v-102.7c0-4.08-1.4-5.25-6.3-5.25h-56.37c-4.9,0-6.3,1.17-6.3,5.25v102.7Z"/>
      </g>
    </g>
    <g id="HEADER">
      <polygon id="BLUE_BOTTOM" data-name="BLUE BOTTOM" class="cls-1" points="0 193.87 1298 92.95 1298 136.51 0 242.88 0 193.87"/>
      <polygon id="BLUE_TOP" data-name="BLUE TOP" class="cls-2" points="0 177.87 1298 76.95 1298 120.51 0 226.88 0 177.87"/>
      <polyline id="RED_PATH" data-name="RED PATH" class="cls-3" points="1298 104.51 1298 0 0 0 0 210.88 1298 104.51"/>
      <g id="LOGO">
        <path class="cls-4" d="m132.41,45.33l8.27,77h-27.47l-1.7-54.94-10.61,54.94h-27.79l-10.82-54.52-1.59,54.52h-27.47l8.27-77h36.06l9.23,50.17,8.06-50.17h37.55Z"/>
        <path class="cls-4" d="m144.61,120.06c-2.19-2.23-3.29-4.9-3.29-8.01s1.1-5.76,3.29-7.95,4.84-3.29,7.95-3.29,5.67,1.11,7.9,3.34,3.34,4.86,3.34,7.9-1.11,5.78-3.34,8.01c-2.23,2.23-4.86,3.34-7.9,3.34s-5.76-1.11-7.95-3.34Z"/>
        <path class="cls-4" d="m168.2,118.62c-2.94-3.18-4.4-7.67-4.4-13.47v-39.88c0-5.8,1.47-10.29,4.4-13.47,2.93-3.18,7.19-4.77,12.78-4.77s9.85,1.59,12.78,4.77c2.93,3.18,4.4,7.67,4.4,13.47v7.85h-11.03v-8.59c0-4.6-1.95-6.89-5.83-6.89s-5.83,2.3-5.83,6.89v41.47c0,4.53,1.94,6.79,5.83,6.79s5.83-2.26,5.83-6.79v-11.35h11.03v10.5c0,5.8-1.47,10.29-4.4,13.47-2.94,3.18-7.2,4.77-12.78,4.77s-9.85-1.59-12.78-4.77Z"/>
        <path class="cls-4" d="m228.82,84.79h-5.62v35.53h6.89v2.02h-34.47v-2.02h6.89V50.11h-6.89v-2.02h32.03c9.19,0,15.71.48,19.57,1.43,3.85.95,6.56,2.1,8.11,3.45,3.39,2.76,5.09,7.14,5.09,13.15s-1.48,10.31-4.45,12.89c-2.97,2.58-7.5,4.12-13.58,4.61v.32c5.73.78,9.72,2.48,11.99,5.09,2.26,2.62,3.39,7,3.39,13.15v5.62c0,3.68.19,6.15.58,7.42.39,1.27,1.22,1.91,2.49,1.91s2.28-.58,3.02-1.75c.74-1.17,1.43-3.62,2.07-7.37l1.8.21c-.78,6.01-2.14,10.04-4.08,12.09-1.95,2.05-5.82,3.08-11.61,3.08s-9.92-1.36-12.36-4.08c-2.44-2.72-3.66-7.83-3.66-15.33v-7.74c0-3.96-.51-6.86-1.54-8.7-1.03-1.84-2.92-2.76-5.67-2.76Zm-5.62-34.68v32.67h3.39c4.03,0,7.02-1.24,8.96-3.71,1.94-2.47,2.92-6.5,2.92-12.09v-3.08c0-5.58-.94-9.28-2.81-11.08-1.87-1.8-4.86-2.7-8.96-2.7h-3.5Z"/>
        <path class="cls-4" d="m271.24,118.52c-3.04-3.25-4.56-7.85-4.56-13.79v-39.03c0-5.94,1.52-10.54,4.56-13.79,3.04-3.25,7.42-4.88,13.15-4.88s10.11,1.63,13.15,4.88c3.04,3.25,4.56,7.85,4.56,13.79v39.03c0,5.94-1.52,10.54-4.56,13.79-3.04,3.25-7.42,4.88-13.15,4.88s-10.11-1.63-13.15-4.88Zm19.2-13.05v-40.52c0-4.88-2.02-7.32-6.05-7.32s-6.05,2.44-6.05,7.32v40.52c0,4.88,2.02,7.32,6.05,7.32s6.05-2.44,6.05-7.32Z"/>
        <path class="cls-4" d="m361.39,50.11v72.23h-14.85l-36.38-68.62v66.61h5.83v2.02h-14.53v-2.02h5.83V50.11h-5.83v-2.02h29.27l27.79,53.24v-51.23h-5.83v-2.02h14.53v2.02h-5.83Z"/>
        <path class="cls-4" d="m367.44,48.09h11.67v74.24h-11.67V48.09Z"/>
        <path class="cls-4" d="m381.01,48.09h14.64l11.35,44.44h.21v-44.44h10.39v74.24h-11.98l-14-54.2h-.21v54.2h-10.39V48.09Z"/>
        <path class="cls-4" d="m490.89,83.94c0,14.57-4.1,24.71-12.3,30.44-7.57,5.3-17.96,7.95-31.18,7.95h-30.02v-2.02h7V50.11h-7v-2.02h32.77c13.58,0,23.76,2.78,30.55,8.33,6.79,5.55,10.18,14.73,10.18,27.52Zm-45.82,36.38h4.03c7.14,0,12.25-2.53,15.33-7.58,3.08-5.05,4.61-13.52,4.61-25.4v-6.15c0-15.91-3.04-25.49-9.12-28.74-2.9-1.55-7-2.33-12.3-2.33h-2.55v70.21Z"/>
        <path class="cls-4" d="m502.13,97.83v8.06c0,4.24,1.06,8.06,5.2,8.06,4.35,0,4.88-3.92,4.88-7.85v-.21h10.61v.21c0,5.73-1.17,17.08-15.27,17.08s-16.02-8.7-16.02-19.73v-18.03c0-7.53,2.33-18.88,16.02-18.88,11.67,0,15.49,7.95,15.49,18.77v12.52h-20.89Zm10.39-8.59v-5.62c0-5.09-1.17-7.85-5.09-7.85-3.5,0-5.2,2.55-5.2,7.85v5.62h10.29Z"/>
        <path class="cls-4" d="m532.36,105.15v2.55c0,3.39.95,6.26,4.45,6.26,2.97,0,4.24-1.8,4.24-5.41s-.95-6.05-7.64-10.29c-7.53-4.88-11.14-8.91-11.14-16.76,0-9.23,4.99-14.96,14.53-14.96,10.39,0,14.53,5.73,14.53,15.8v2.23h-10.61v-3.39c0-3.82-1.27-5.41-3.82-5.41-2.76,0-3.82,2.02-3.82,4.88,0,3.08,1.06,4.45,6.05,7.64,9.55,6.15,12.94,10.08,12.94,18.99,0,10.5-5.2,15.91-15.59,15.91-12.3,0-15.17-7.74-15.17-15.59v-2.44h11.03Z"/>
        <path class="cls-4" d="m552.19,67.39h10.92v54.94h-10.92v-54.94Zm.11-18.99h10.92v11.67h-10.92v-11.67Z"/>
        <path class="cls-4" d="m604.59,66.33l2.97-1.8c.42-2.19-.42-3.29-2.55-3.29-3.04,0-4.56,2.33-4.56,7,0,1.84.25,3.96.74,6.36,5.37,3.61,8.06,8.22,8.06,13.84s-1.95,9.99-5.83,13.1c-3.89,3.11-9.16,4.67-15.8,4.67-2.76,0-5.62-.28-8.59-.85-3.11,1.98-4.67,3.46-4.67,4.45s2.26,1.48,6.79,1.48h10.82c16.05,0,24.08,5.76,24.08,17.29,0,6.22-2.42,11.15-7.27,14.8-4.84,3.64-12.39,5.46-22.64,5.46-17.47,0-26.2-3.78-26.2-11.35,0-4.1,2.72-6.93,8.17-8.48l6.36,2.86c-.57,2.05-.85,3.99-.85,5.83,0,6.08,4.52,9.12,13.58,9.12,5.52,0,9.76-1.03,12.73-3.08,2.97-2.05,4.45-4.6,4.45-7.64s-.9-5.07-2.7-6.1c-1.8-1.03-5.39-1.54-10.77-1.54h-10.29c-5.73,0-9.83-.95-12.3-2.86-2.48-1.91-3.71-4.26-3.71-7.05s.88-5.13,2.65-7c1.77-1.87,4.91-4.19,9.44-6.95-8.2-2.33-12.3-7.71-12.3-16.12,0-5.3,1.91-9.58,5.73-12.83,3.82-3.25,9.55-4.88,17.18-4.88,4.6,0,8.52.89,11.77,2.65-.42-1.91-.64-3.64-.64-5.2,0-3.96,1.06-6.82,3.18-8.59,2.12-1.77,4.49-2.65,7.11-2.65s4.72.69,6.31,2.07,2.39,3.27,2.39,5.67-.64,4.19-1.91,5.36c-1.27,1.17-2.81,1.75-4.61,1.75s-3.29-.48-4.45-1.43c-1.17-.95-1.79-2.31-1.86-4.08Zm-22.49,19.83v5.73c0,4.74.41,7.95,1.22,9.65.81,1.7,2.05,2.55,3.71,2.55s2.86-.83,3.61-2.49c.74-1.66,1.11-5.07,1.11-10.23v-5.2c0-5.52-.35-9.14-1.06-10.87-.71-1.73-1.89-2.6-3.55-2.6s-2.92.9-3.77,2.7c-.85,1.8-1.27,5.39-1.27,10.77Z"/>
        <path class="cls-4" d="m610.84,71.85h25.56v9.76c1.13-3.25,2.86-5.87,5.2-7.85,2.33-1.98,5.87-2.97,10.61-2.97,10.96,0,16.44,5.9,16.44,17.71v31.92h5.94v1.91h-30.02v-1.91h4.35v-34.47c0-4.24-.28-6.98-.85-8.22-.57-1.24-1.59-1.86-3.08-1.86-2.26,0-4.26,1.48-5.99,4.45-1.73,2.97-2.6,6.58-2.6,10.82v29.27h4.56v1.91h-30.12v-1.91h5.83v-46.67h-5.83v-1.91Z"/>
        <path class="cls-4" d="m671.62,123.4v-18.98h1.27c1.84,6.15,4.31,10.47,7.42,12.94,3.11,2.48,7,3.71,11.67,3.71,7.21,0,10.82-2.3,10.82-6.89,0-1.98-.88-3.46-2.65-4.45-2.76-1.55-6.29-2.76-10.61-3.61-4.81-1.27-8.84-2.97-12.09-5.09-3.89-2.55-5.83-6.58-5.83-12.09s1.7-9.92,5.09-13.2c3.39-3.29,7.92-4.93,13.58-4.93,3.46,0,7.04.81,10.71,2.44,1.34.57,2.37.85,3.08.85s1.31-.25,1.8-.74,1.1-1.41,1.8-2.76h1.17v16.23h-1.27c-3.61-9.19-9.19-13.79-16.76-13.79-3.32,0-5.8.58-7.42,1.75-1.63,1.17-2.44,2.63-2.44,4.4,0,1.06.25,1.89.74,2.49.49.6.88,1.04,1.17,1.33.28.28.74.58,1.38.9.64.32,1.17.57,1.59.74.42.18,1.08.41,1.96.69.88.28,1.54.46,1.96.53,4.81,1.2,8.27,2.25,10.39,3.13,2.12.88,4.14,1.96,6.05,3.23,3.89,2.69,5.83,7.02,5.83,12.99s-1.77,10.5-5.3,13.58c-3.54,3.08-8.38,4.61-14.53,4.61-4.39,0-8.63-1.03-12.73-3.08-.85-.56-1.52-.85-2.02-.85-1.56,0-3.08,1.31-4.56,3.92h-1.27Z"/>
      </g>
      <g id="TABS">
        <rect id="HOME_Rectangle_" data-name="HOME&amp;lt;Rectangle&amp;gt;" class="cls-3" x="728.53" y="69.54" width="92" height="19.66"/>
        <g id="HOME">
          <path class="cls-4" d="m749.14,84.44h2.08v.44h-4.66v-.44h2.08v-6.74h-8.78v6.74h2.08v.44h-4.66v-.44h2.08v-13.12h-2.08v-.44h4.66v.44h-2.08v5.94h8.78v-5.94h-2.08v-.44h4.66v.44h-2.08v13.12Z"/>
          <path class="cls-4" d="m759.58,84.88c-2.14,0-3.16-.98-3.16-3.04v-7.92c0-2.06,1.02-3.04,3.16-3.04h3.76c2.14,0,3.16.98,3.16,3.04v7.92c0,2.06-1.02,3.04-3.16,3.04h-3.76Zm-2.66-3c0,1.74.85,2.56,2.66,2.56h3.76c1.81,0,2.66-.82,2.66-2.56v-8c0-1.74-.85-2.56-2.66-2.56h-3.76c-1.81,0-2.66.82-2.66,2.56v8Z"/>
          <path class="cls-4" d="m786.72,84.44h2.08v.44h-4.66v-.44h2.08v-12.54l-5.76,11.04h-.42l-5.76-11.04v12.54h2.08v.44h-4.66v-.44h2.08v-13.12h-2.08v-.44h2.58l5.97,11.42,5.97-11.42h2.58v.44h-2.08v13.12Z"/>
          <path class="cls-4" d="m803.72,71.32h-7.63v6.16h6.97v.44h-6.97v6.52h7.63v-2.76h.5v3.2h-10.71v-.44h2.08v-13.12h-2.08v-.44h10.71v3.2h-.5v-2.76Z"/>
        </g>
        <path id="B1" class="cls-4" d="m821.61,69.54v19.66h-.5v-19.66h.5Z"/>
        <rect id="ABOUT_ME_Rectangle_" data-name="ABOUT ME&amp;lt;Rectangle&amp;gt;" class="cls-3" x="821.95" y="69.54" width="159.08" height="19.66"/>
        <g id="ABOUT_ME" data-name="ABOUT ME">
          <path class="cls-4" d="m851.85,84.88h-4.24v-.44h1.98l-1.62-4.16h-6.9l-1.62,4.16h1.98v.44h-4.24v-.44h1.75l5.16-13.12h-2.1v-.44h2.81l5.32,13.56h1.75v.44Zm-7.34-13.42l-3.27,8.38h6.55l-3.29-8.38Z"/>
          <path class="cls-4" d="m856.13,71.32v-.44h8.36c2.14,0,3.16.98,3.16,3.56,0,2.12-.71,2.98-2.02,3.24,1.35.18,2.18,1.04,2.18,3.48,0,2.74-1.02,3.72-3.16,3.72h-8.53v-.44h2.08v-13.12h-2.08Zm8.36,6.16c1.81,0,2.66-.82,2.66-3.08s-.85-3.08-2.66-3.08h-5.78v6.16h5.78Zm.17,6.96c1.81,0,2.66-.82,2.66-3.26s-.85-3.26-2.66-3.26h-5.95v6.52h5.95Z"/>
          <path class="cls-4" d="m876.73,84.88c-2.14,0-3.16-.98-3.16-3.04v-7.92c0-2.06,1.02-3.04,3.16-3.04h3.76c2.14,0,3.16.98,3.16,3.04v7.92c0,2.06-1.02,3.04-3.16,3.04h-3.76Zm-2.66-3c0,1.74.85,2.56,2.66,2.56h3.76c1.81,0,2.66-.82,2.66-2.56v-8c0-1.74-.85-2.56-2.66-2.56h-3.76c-1.81,0-2.66.82-2.66,2.56v8Z"/>
          <path class="cls-4" d="m900.37,71.32v10.52c0,2.06-1.02,3.04-3.16,3.04h-3.33c-2.14,0-3.16-.98-3.16-3.04v-10.52h-1.91v-.44h4.49v.44h-2.08v10.56c0,1.74.85,2.56,2.66,2.56h3.33c1.81,0,2.66-.82,2.66-2.56v-10.56h-2.08v-.44h4.49v.44h-1.91Z"/>
          <path class="cls-4" d="m918.43,74.08h-.5v-2.76h-4.95v13.12h2.08v.44h-4.66v-.44h2.08v-13.12h-4.95v2.76h-.5v-3.2h11.4v3.2Z"/>
          <path class="cls-4" d="m947.05,84.44h2.08v.44h-4.66v-.44h2.08v-12.54l-5.76,11.04h-.42l-5.76-11.04v12.54h2.08v.44h-4.66v-.44h2.08v-13.12h-2.08v-.44h2.58l5.97,11.42,5.97-11.42h2.58v.44h-2.08v13.12Z"/>
          <path class="cls-4" d="m964.04,71.32h-7.63v6.16h6.97v.44h-6.97v6.52h7.63v-2.76h.5v3.2h-10.71v-.44h2.08v-13.12h-2.08v-.44h10.71v3.2h-.5v-2.76Z"/>
        </g>
        <path id="B2" class="cls-4" d="m981.93,69.54v19.66h-.5v-19.66h.5Z"/>
        <rect id="MY_WORK_Rectangle_" data-name="MY WORK&amp;lt;Rectangle&amp;gt;" class="cls-3" x="982.29" y="69.54" width="150.32" height="19.66"/>
        <g id="MY_WORK" data-name="MY WORK">
          <path class="cls-4" d="m1013.3,84.44h2.08v.44h-4.66v-.44h2.08v-12.54l-5.76,11.04h-.42l-5.76-11.04v12.54h2.08v.44h-4.66v-.44h2.08v-13.12h-2.08v-.44h2.58l5.97,11.42,5.97-11.42h2.58v.44h-2.08v13.12Z"/>
          <path class="cls-4" d="m1026.75,84.44h2.1v.44h-4.66v-.44h2.06v-4.8l-4.7-8.32h-1.89v-.44h4.24v.44h-1.79l4.39,7.84,4.39-7.84h-1.79v-.44h4.24v.44h-1.89l-4.7,8.32v4.8Z"/>
          <path class="cls-4" d="m1064.32,71.32l-3.87,13.56h-.62l-3.87-13.22-3.87,13.22h-.62l-3.87-13.56h-1.77v-.44h4.24v.44h-1.98l3.68,12.94,3.93-13.38h.5l3.93,13.38,3.68-12.94h-1.98v-.44h4.24v.44h-1.77Z"/>
          <path class="cls-4" d="m1073.83,84.88c-2.14,0-3.16-.98-3.16-3.04v-7.92c0-2.06,1.02-3.04,3.16-3.04h3.76c2.14,0,3.16.98,3.16,3.04v7.92c0,2.06-1.02,3.04-3.16,3.04h-3.76Zm-2.66-3c0,1.74.85,2.56,2.66,2.56h3.76c1.81,0,2.66-.82,2.66-2.56v-8c0-1.74-.85-2.56-2.66-2.56h-3.76c-1.81,0-2.66.82-2.66,2.56v8Z"/>
          <path class="cls-4" d="m1099.03,84.88h-2.31l-3.35-6.3h-4.85v5.86h2.25v.44h-4.83v-.44h2.08v-13.12h-2.08v-.44h8.11c2.14,0,3.16.98,3.16,3.04v1.62c0,2.06-1.02,3.04-3.16,3.04h-.17l3.14,5.86h2v.44Zm-4.97-6.74c1.81,0,2.66-.82,2.66-2.56v-1.7c0-1.74-.85-2.56-2.66-2.56h-5.53v6.82h5.53Z"/>
          <path class="cls-4" d="m1117.13,84.88h-2.04l-5.57-8.1-3.54,3.74v3.92h2.25v.44h-4.83v-.44h2.08v-13.12h-2.08v-.44h4.83v.44h-2.25v8.6l8.07-8.6h-2v-.44h4.66v.44h-2.02l-4.85,5.12,5.51,8h1.77v.44Z"/>
        </g>
        <path id="B3" class="cls-4" d="m1133.31,69.54v19.66h-.5v-19.66h.5Z"/>
        <rect id="CONTACT_Rectangle_" data-name="CONTACT&amp;lt;Rectangle&amp;gt;" class="cls-3" x="1133.95" y="69.54" width="135" height="19.66"/>
        <g id="CONTACT">
          <path class="cls-4" d="m1153.57,84.88c-2.14,0-3.16-.98-3.16-3.04v-7.92c0-2.06,1.02-3.04,3.16-3.04h3.41c2.14,0,3.16.98,3.16,3.04v.76h-.5v-.8c0-1.74-.85-2.56-2.66-2.56h-3.41c-1.81,0-2.66.82-2.66,2.56v8c0,1.74.85,2.56,2.66,2.56h3.41c1.81,0,2.66-.82,2.66-2.56v-.8h.5v.76c0,2.06-1.02,3.04-3.16,3.04h-3.41Z"/>
          <path class="cls-4" d="m1169.34,84.88c-2.14,0-3.16-.98-3.16-3.04v-7.92c0-2.06,1.02-3.04,3.16-3.04h3.76c2.14,0,3.16.98,3.16,3.04v7.92c0,2.06-1.02,3.04-3.16,3.04h-3.76Zm-2.66-3c0,1.74.85,2.56,2.66,2.56h3.76c1.81,0,2.66-.82,2.66-2.56v-8c0-1.74-.85-2.56-2.66-2.56h-3.76c-1.81,0-2.66.82-2.66,2.56v8Z"/>
          <path class="cls-4" d="m1193.53,71.32v13.56h-.44l-9.05-13.46v13.02h2.25v.44h-4.83v-.44h2.08v-13.12h-2.08v-.44h2.77l8.8,13.08v-12.64h-2.25v-.44h4.74v.44h-2Z"/>
          <path class="cls-4" d="m1211.66,74.08h-.5v-2.76h-4.95v13.12h2.08v.44h-4.66v-.44h2.08v-13.12h-4.95v2.76h-.5v-3.2h11.4v3.2Z"/>
          <path class="cls-4" d="m1228.89,84.88h-4.24v-.44h1.98l-1.62-4.16h-6.9l-1.62,4.16h1.98v.44h-4.24v-.44h1.75l5.16-13.12h-2.1v-.44h2.81l5.32,13.56h1.75v.44Zm-7.34-13.42l-3.27,8.38h6.55l-3.29-8.38Z"/>
          <path class="cls-4" d="m1236.63,84.88c-2.14,0-3.16-.98-3.16-3.04v-7.92c0-2.06,1.02-3.04,3.16-3.04h3.41c2.14,0,3.16.98,3.16,3.04v.76h-.5v-.8c0-1.74-.85-2.56-2.66-2.56h-3.41c-1.81,0-2.66.82-2.66,2.56v8c0,1.74.85,2.56,2.66,2.56h3.41c1.81,0,2.66-.82,2.66-2.56v-.8h.5v.76c0,2.06-1.02,3.04-3.16,3.04h-3.41Z"/>
          <path class="cls-4" d="m1259.86,74.08h-.5v-2.76h-4.95v13.12h2.08v.44h-4.66v-.44h2.08v-13.12h-4.95v2.76h-.5v-3.2h11.4v3.2Z"/>
        </g>
      </g>
    </g>
    <g id="FOOTER">
      <rect id="FOOTER_RECT" data-name="FOOTER RECT" class="cls-2" x="9" y="809" width="1280" height="100"/>
      <g id="FOOTER_TEXT" data-name="FOOTER TEXT">
        <path class="cls-4" d="m41.56,827.07h9.8l4.37,30.06h.12l4.37-30.06h9.8v42h-6.49v-31.8h-.12l-4.99,31.8h-5.74l-4.99-31.8h-.12v31.8h-5.99v-42Z"/>
        <path class="cls-4" d="m83.99,862.71h6.61v6.36h-6.61v-6.36Z"/>
        <path class="cls-4" d="m106.36,866.97c-1.73-1.8-2.59-4.34-2.59-7.62v-22.56c0-3.28.86-5.82,2.59-7.62,1.73-1.8,4.23-2.7,7.52-2.7s5.79.9,7.52,2.7c1.73,1.8,2.59,4.34,2.59,7.62v4.44h-6.49v-4.86c0-2.6-1.14-3.9-3.43-3.9s-3.43,1.3-3.43,3.9v23.46c0,2.56,1.14,3.84,3.43,3.84s3.43-1.28,3.43-3.84v-6.42h6.49v5.94c0,3.28-.86,5.82-2.59,7.62-1.73,1.8-4.23,2.7-7.52,2.7s-5.79-.9-7.52-2.7Z"/>
        <path class="cls-4" d="m136.97,827.07h10.17c3.54,0,6.12.79,7.74,2.37,1.62,1.58,2.43,4.01,2.43,7.29v2.58c0,4.36-1.5,7.12-4.49,8.28v.12c1.66.48,2.84,1.46,3.53,2.94.69,1.48,1.03,3.46,1.03,5.94v7.38c0,1.2.04,2.17.12,2.91.08.74.29,1.47.62,2.19h-6.99c-.25-.68-.42-1.32-.5-1.92-.08-.6-.12-1.68-.12-3.24v-7.68c0-1.92-.32-3.26-.97-4.02-.65-.76-1.76-1.14-3.34-1.14h-2.37v18h-6.86v-42Zm9.36,18c1.37,0,2.4-.34,3.09-1.02.69-.68,1.03-1.82,1.03-3.42v-3.24c0-1.52-.28-2.62-.84-3.3-.56-.68-1.45-1.02-2.65-1.02h-3.12v12h2.5Z"/>
        <path class="cls-4" d="m173.16,866.91c-1.79-1.84-2.68-4.44-2.68-7.8v-22.08c0-3.36.89-5.96,2.68-7.8,1.79-1.84,4.37-2.76,7.74-2.76s5.95.92,7.74,2.76c1.79,1.84,2.68,4.44,2.68,7.8v22.08c0,3.36-.89,5.96-2.68,7.8-1.79,1.84-4.37,2.76-7.74,2.76s-5.95-.92-7.74-2.76Zm11.29-7.38v-22.92c0-2.76-1.19-4.14-3.56-4.14s-3.56,1.38-3.56,4.14v22.92c0,2.76,1.19,4.14,3.56,4.14s3.56-1.38,3.56-4.14Z"/>
        <path class="cls-4" d="m204.8,827.07h8.61l6.68,25.14h.12v-25.14h6.12v42h-7.05l-8.24-30.66h-.12v30.66h-6.12v-42Z"/>
        <path class="cls-4" d="m240.3,827.07h6.86v42h-6.86v-42Z"/>
        <path class="cls-4" d="m261.14,827.07h8.61l6.68,25.14h.12v-25.14h6.12v42h-7.05l-8.24-30.66h-.12v30.66h-6.12v-42Z"/>
        <path class="cls-4" d="m296.65,827.07h10.48c3.41,0,5.97.88,7.67,2.64,1.71,1.76,2.56,4.34,2.56,7.74v21.24c0,3.4-.85,5.98-2.56,7.74-1.71,1.76-4.26,2.64-7.67,2.64h-10.48v-42Zm10.36,36c1.12,0,1.99-.32,2.59-.96.6-.64.9-1.68.9-3.12v-21.84c0-1.44-.3-2.48-.9-3.12-.6-.64-1.47-.96-2.59-.96h-3.49v30h3.49Z"/>
        <path class="cls-4" d="m330.84,827.07h18.72v6h-11.86v11.1h9.42v6h-9.42v12.9h11.86v6h-18.72v-42Z"/>
        <path class="cls-4" d="m363.85,866.94c-1.71-1.82-2.56-4.43-2.56-7.83v-2.4h6.49v2.88c0,2.72,1.19,4.08,3.56,4.08,1.16,0,2.05-.33,2.65-.99.6-.66.91-1.73.91-3.21,0-1.76-.42-3.31-1.25-4.65-.83-1.34-2.37-2.95-4.62-4.83-2.83-2.4-4.8-4.57-5.93-6.51-1.12-1.94-1.68-4.13-1.68-6.57,0-3.32.87-5.89,2.62-7.71,1.75-1.82,4.28-2.73,7.61-2.73s5.77.91,7.46,2.73c1.68,1.82,2.53,4.43,2.53,7.83v1.74h-6.49v-2.16c0-1.44-.29-2.49-.87-3.15-.58-.66-1.44-.99-2.56-.99-2.29,0-3.43,1.34-3.43,4.02,0,1.52.43,2.94,1.28,4.26.85,1.32,2.4,2.92,4.65,4.8,2.87,2.4,4.85,4.58,5.93,6.54,1.08,1.96,1.62,4.26,1.62,6.9,0,3.44-.88,6.08-2.65,7.92-1.77,1.84-4.34,2.76-7.71,2.76s-5.84-.91-7.55-2.73Z"/>
        <path class="cls-4" d="m394.55,827.07h6.86v42h-6.86v-42Z"/>
        <path class="cls-4" d="m417.51,866.94c-1.75-1.82-2.62-4.43-2.62-7.83v-22.08c0-3.4.87-6.01,2.62-7.83,1.75-1.82,4.28-2.73,7.61-2.73s5.87.91,7.61,2.73c1.75,1.82,2.62,4.43,2.62,7.83v3.6h-6.49v-4.02c0-2.76-1.19-4.14-3.56-4.14s-3.56,1.38-3.56,4.14v22.98c0,2.72,1.19,4.08,3.56,4.08s3.56-1.36,3.56-4.08v-8.22h-3.43v-6h9.92v13.74c0,3.4-.87,6.01-2.62,7.83-1.75,1.82-4.29,2.73-7.61,2.73s-5.87-.91-7.61-2.73Z"/>
        <path class="cls-4" d="m448.65,827.07h8.61l6.68,25.14h.12v-25.14h6.12v42h-7.05l-8.24-30.66h-.12v30.66h-6.12v-42Z"/>
        <path class="cls-4" d="m485.53,866.94c-1.71-1.82-2.56-4.43-2.56-7.83v-2.4h6.49v2.88c0,2.72,1.19,4.08,3.56,4.08,1.16,0,2.05-.33,2.65-.99.6-.66.9-1.73.9-3.21,0-1.76-.42-3.31-1.25-4.65-.83-1.34-2.37-2.95-4.62-4.83-2.83-2.4-4.8-4.57-5.93-6.51-1.12-1.94-1.69-4.13-1.69-6.57,0-3.32.87-5.89,2.62-7.71,1.75-1.82,4.28-2.73,7.61-2.73s5.77.91,7.46,2.73c1.68,1.82,2.53,4.43,2.53,7.83v1.74h-6.49v-2.16c0-1.44-.29-2.49-.87-3.15-.58-.66-1.43-.99-2.56-.99-2.29,0-3.43,1.34-3.43,4.02,0,1.52.43,2.94,1.28,4.26.85,1.32,2.4,2.92,4.65,4.8,2.87,2.4,4.85,4.58,5.93,6.54,1.08,1.96,1.62,4.26,1.62,6.9,0,3.44-.88,6.08-2.65,7.92-1.77,1.84-4.34,2.76-7.71,2.76s-5.84-.91-7.55-2.73Z"/>
        <path class="cls-4" d="m544.4,866.85c-3.31-1.88-5.9-4.46-7.77-7.74-1.87-3.28-2.81-6.96-2.81-11.04s.94-7.76,2.81-11.04c1.87-3.28,4.46-5.86,7.77-7.74,3.31-1.88,7.02-2.82,11.14-2.82s7.83.94,11.14,2.82c3.31,1.88,5.9,4.46,7.77,7.74,1.87,3.28,2.81,6.96,2.81,11.04s-.94,7.76-2.81,11.04c-1.87,3.28-4.46,5.86-7.77,7.74-3.31,1.88-7.02,2.82-11.14,2.82s-7.83-.94-11.14-2.82Zm20-3.6c2.62-1.48,4.67-3.55,6.15-6.21,1.48-2.66,2.21-5.65,2.21-8.97s-.74-6.31-2.21-8.97c-1.48-2.66-3.53-4.73-6.15-6.21-2.62-1.48-5.58-2.22-8.86-2.22s-6.24.74-8.86,2.22c-2.62,1.48-4.67,3.55-6.15,6.21s-2.21,5.65-2.21,8.97.74,6.31,2.21,8.97c1.48,2.66,3.53,4.73,6.15,6.21,2.62,1.48,5.57,2.22,8.86,2.22s6.24-.74,8.86-2.22Zm-14.38-3.87c-1.19-1.26-1.78-3.07-1.78-5.43v-11.64c0-2.4.59-4.24,1.78-5.52,1.19-1.28,2.94-1.92,5.27-1.92s4.09.64,5.27,1.92c1.19,1.28,1.78,3.12,1.78,5.52v2.16h-4.49v-2.52c0-1.92-.81-2.88-2.43-2.88s-2.43.96-2.43,2.88v12.24c0,1.88.81,2.82,2.43,2.82s2.43-.94,2.43-2.82v-3.6h4.49v3.36c0,2.36-.59,4.17-1.78,5.43-1.19,1.26-2.94,1.89-5.27,1.89s-4.09-.63-5.27-1.89Z"/>
        <path class="cls-4" d="m41.75,879.57h3.25l2.49,14.7h-2.4l-.44-2.92v.04h-2.73l-.44,2.88h-2.23l2.49-14.7Zm2.62,9.83l-1.07-7.27h-.04l-1.05,7.27h2.16Z"/>
        <path class="cls-4" d="m51.75,879.57h2.4v12.6h3.95v2.1h-6.36v-14.7Z"/>
        <path class="cls-4" d="m62.37,879.57h2.4v12.6h3.95v2.1h-6.36v-14.7Z"/>
        <path class="cls-4" d="m79.58,879.57h3.56c1.24,0,2.14.28,2.71.83.57.55.85,1.4.85,2.55v.9c0,1.53-.52,2.49-1.57,2.9v.04c.58.17.99.51,1.23,1.03.24.52.36,1.21.36,2.08v2.58c0,.42.01.76.04,1.02.03.26.1.51.22.77h-2.45c-.09-.24-.15-.46-.17-.67s-.04-.59-.04-1.13v-2.69c0-.67-.11-1.14-.34-1.41-.23-.27-.62-.4-1.17-.4h-.83v6.3h-2.4v-14.7Zm3.28,6.3c.48,0,.84-.12,1.08-.36s.36-.64.36-1.2v-1.13c0-.53-.1-.92-.29-1.16-.2-.24-.51-.36-.93-.36h-1.09v4.2h.87Z"/>
        <path class="cls-4" d="m91.48,879.57h2.4v14.7h-2.4v-14.7Z"/>
        <path class="cls-4" d="m99.52,893.53c-.61-.64-.92-1.55-.92-2.74v-7.73c0-1.19.31-2.1.92-2.74.61-.64,1.5-.96,2.66-.96s2.05.32,2.67.96c.61.64.92,1.55.92,2.74v1.26h-2.27v-1.41c0-.97-.42-1.45-1.24-1.45s-1.25.48-1.25,1.45v8.04c0,.95.42,1.43,1.25,1.43s1.24-.48,1.24-1.43v-2.88h-1.2v-2.1h3.47v4.81c0,1.19-.31,2.1-.92,2.74-.61.64-1.5.96-2.67.96s-2.05-.32-2.66-.96Z"/>
        <path class="cls-4" d="m110.42,879.57h2.4v5.99h2.58v-5.99h2.4v14.7h-2.4v-6.62h-2.58v6.62h-2.4v-14.7Z"/>
        <path class="cls-4" d="m124.57,881.67h-2.51v-2.1h7.42v2.1h-2.51v12.6h-2.4v-12.6Z"/>
        <path class="cls-4" d="m134.22,893.53c-.6-.64-.9-1.55-.9-2.74v-.84h2.27v1.01c0,.95.42,1.43,1.24,1.43.41,0,.72-.12.93-.35.21-.23.32-.61.32-1.12,0-.62-.15-1.16-.44-1.63-.29-.47-.83-1.03-1.62-1.69-.99-.84-1.68-1.6-2.08-2.28-.39-.68-.59-1.45-.59-2.3,0-1.16.31-2.06.92-2.7.61-.64,1.5-.96,2.66-.96s2.02.32,2.61.96c.59.64.88,1.55.88,2.74v.61h-2.27v-.76c0-.5-.1-.87-.31-1.1-.2-.23-.5-.35-.9-.35-.8,0-1.2.47-1.2,1.41,0,.53.15,1.03.45,1.49.3.46.84,1.02,1.63,1.68,1,.84,1.7,1.6,2.08,2.29.38.69.57,1.49.57,2.42,0,1.2-.31,2.13-.93,2.77-.62.64-1.52.97-2.7.97s-2.05-.32-2.64-.96Z"/>
        <path class="cls-4" d="m151.56,879.57h3.56c1.24,0,2.14.28,2.71.83.57.55.85,1.4.85,2.55v.9c0,1.53-.52,2.49-1.57,2.9v.04c.58.17.99.51,1.23,1.03.24.52.36,1.21.36,2.08v2.58c0,.42.01.76.04,1.02.03.26.1.51.22.77h-2.45c-.09-.24-.15-.46-.17-.67s-.04-.59-.04-1.13v-2.69c0-.67-.11-1.14-.34-1.41-.23-.27-.62-.4-1.17-.4h-.83v6.3h-2.4v-14.7Zm3.28,6.3c.48,0,.84-.12,1.08-.36s.36-.64.36-1.2v-1.13c0-.53-.1-.92-.29-1.16-.2-.24-.51-.36-.93-.36h-1.09v4.2h.87Z"/>
        <path class="cls-4" d="m163.46,879.57h6.55v2.1h-4.15v3.88h3.3v2.1h-3.3v4.52h4.15v2.1h-6.55v-14.7Z"/>
        <path class="cls-4" d="m175.02,893.53c-.6-.64-.9-1.55-.9-2.74v-.84h2.27v1.01c0,.95.42,1.43,1.25,1.43.41,0,.72-.12.93-.35.21-.23.32-.61.32-1.12,0-.62-.15-1.16-.44-1.63s-.83-1.03-1.62-1.69c-.99-.84-1.68-1.6-2.07-2.28-.39-.68-.59-1.45-.59-2.3,0-1.16.31-2.06.92-2.7.61-.64,1.5-.96,2.67-.96s2.02.32,2.61.96c.59.64.88,1.55.88,2.74v.61h-2.27v-.76c0-.5-.1-.87-.31-1.1-.2-.23-.5-.35-.9-.35-.8,0-1.2.47-1.2,1.41,0,.53.15,1.03.45,1.49.3.46.84,1.02,1.63,1.68,1,.84,1.7,1.6,2.07,2.29.38.69.57,1.49.57,2.42,0,1.2-.31,2.13-.93,2.77s-1.52.97-2.7.97-2.05-.32-2.64-.96Z"/>
        <path class="cls-4" d="m185.76,879.57h6.55v2.1h-4.15v3.88h3.3v2.1h-3.3v4.52h4.15v2.1h-6.55v-14.7Z"/>
        <path class="cls-4" d="m196.79,879.57h3.56c1.24,0,2.14.28,2.71.83.57.55.85,1.4.85,2.55v.9c0,1.53-.52,2.49-1.57,2.9v.04c.58.17.99.51,1.23,1.03.24.52.36,1.21.36,2.08v2.58c0,.42.01.76.04,1.02.03.26.1.51.22.77h-2.45c-.09-.24-.15-.46-.17-.67s-.04-.59-.04-1.13v-2.69c0-.67-.11-1.14-.34-1.41-.23-.27-.62-.4-1.17-.4h-.83v6.3h-2.4v-14.7Zm3.28,6.3c.48,0,.84-.12,1.08-.36s.36-.64.36-1.2v-1.13c0-.53-.1-.92-.29-1.16-.2-.24-.51-.36-.93-.36h-1.09v4.2h.87Z"/>
        <path class="cls-4" d="m207.97,879.57h2.42l1.57,11.4h.04l1.57-11.4h2.21l-2.31,14.7h-3.19l-2.32-14.7Z"/>
        <path class="cls-4" d="m220.05,879.57h6.55v2.1h-4.15v3.88h3.3v2.1h-3.3v4.52h4.15v2.1h-6.55v-14.7Z"/>
        <path class="cls-4" d="m231.08,879.57h3.67c1.19,0,2.09.31,2.69.92.6.62.9,1.52.9,2.71v7.43c0,1.19-.3,2.09-.9,2.71s-1.49.92-2.69.92h-3.67v-14.7Zm3.63,12.6c.39,0,.69-.11.91-.34.21-.22.32-.59.32-1.09v-7.64c0-.5-.11-.87-.32-1.09-.21-.22-.51-.34-.91-.34h-1.22v10.5h1.22Z"/>
      </g>
    </g>
  </g>
</svg>