<?xml version="1.0" encoding="UTF-8"?>
<svg id="Layer_2" data-name="Layer 2" xmlns="http://www.w3.org/2000/svg" viewBox="0 0 2000 2000">
  <defs>
    <style>
      .cls-1 {
        fill: #d34c4c;
      }

      .cls-1, .cls-2 {
        stroke-width: 0px;
      }

      .cls-2 {
        fill: #fff;
      }
    </style>
  </defs>
  <g id="Layer_1-2" data-name="Layer 1">
    <rect class="cls-1" width="2000" height="2000"/>
    <g>
      <g>
        <polygon class="cls-2" points="1180.75 1366 1166.73 912.13 1079.11 1366 803.94 1366 714.44 914.99 701.28 1366 425.6 1366 505.32 624 859.17 624 938.97 1057.88 1008.69 624 1376.69 624 1456.41 1366 1180.75 1366"/>
        <path class="cls-2" d="m1369.51,632l78,726h-259l-16-518-100,518h-262l-102-514-15,514h-259l78-726h340l87,473,76-473h354m14.37-16h-382.01l-2.16,13.46-61.27,381.31-70.2-381.66-2.41-13.11h-367.7l-1.54,14.29-78,726-1.9,17.71h292.35l.45-15.53,10.87-372.48,74.44,375.13,2.56,12.89h288.34l2.5-12.97,72.74-376.78,11.56,374.24.48,15.51h292.32l-1.9-17.71-78-726-1.54-14.29h0Z"/>
      </g>
      <path class="cls-2" d="m1484.49,1336.5c-20.67-21-31-46.16-31-75.5s10.33-54.33,31-75,45.66-31,75-31,53.5,10.5,74.5,31.5,31.5,45.84,31.5,74.5-10.5,54.5-31.5,75.5-45.84,31.5-74.5,31.5-54.34-10.5-75-31.5Z"/>
    </g>
  </g>
</svg>
